<?xml version="1.0" encoding="UTF-8" standalone="no"?>
<!DOCTYPE svg PUBLIC "-//W3C//DTD SVG 1.1//EN" "http://www.w3.org/Graphics/SVG/1.1/DTD/svg11.dtd">
<svg width="100%" height="100%" viewBox="0 0 1605 502" version="1.1" xmlns="http://www.w3.org/2000/svg" xmlns:xlink="http://www.w3.org/1999/xlink" xml:space="preserve" xmlns:serif="http://www.serif.com/" style="fill-rule:evenodd;clip-rule:evenodd;stroke-linejoin:round;stroke-miterlimit:2;">
    <g transform="matrix(1,0,0,1,-698.678,-1249.19)">
        <g transform="matrix(21.3645,0,0,21.3645,-449.868,-765.599)">
            <g id="path1" transform="matrix(0.818597,0,0,0.818597,15.8776,15.9463)">
                <path d="M46.277,108.659L68.821,108.617L68.821,103.451L50.495,103.451L46.277,108.659Z" style="fill:rgb(170,147,0);fill-rule:nonzero;"/>
            </g>
        </g>
        <g transform="matrix(21.3645,0,0,21.3645,-449.868,-765.599)">
            <g id="path2" transform="matrix(0.818597,0,0,0.818597,15.8776,15.9463)">
                <path d="M52.076,100.89L78.037,100.89L78.015,111.2L68.778,111.2L68.778,116.366L83.05,116.366L83.05,100.955L77.818,95.724L56.607,95.724L52.076,100.89Z" style="fill:rgb(116,86,85);fill-rule:nonzero;"/>
            </g>
        </g>
        <g transform="matrix(21.3645,0,0,21.3645,-449.868,-765.599)">
            <g id="path3" transform="matrix(0.818597,0,0,0.818597,15.8776,15.9463)">
                <path d="M56.979,111.178L66.019,111.178L66.019,116.235L53.145,116.235L56.979,111.178Z" style="fill-rule:nonzero;"/>
            </g>
        </g>
        <g transform="matrix(21.3645,0,0,21.3645,-449.868,-765.599)">
            <g id="path4" transform="matrix(0.818597,0,0,0.818597,15.8776,15.9463)">
                <path d="M98.009,100.966L95.199,104.371L89.697,104.371L89.697,106.94L97.215,106.94L94.458,110.222L89.759,110.222L89.759,112.745L97.978,112.745L95.139,116.366L85.595,116.336L85.595,100.95L98.009,100.966Z" style="fill:rgb(116,86,85);fill-rule:nonzero;"/>
            </g>
        </g>
        <g transform="matrix(21.3645,0,0,21.3645,-449.868,-765.599)">
            <g id="path5" transform="matrix(0.818597,0,0,0.818597,15.8776,15.9463)">
                <path d="M100.408,116.344L100.408,100.89L104.173,100.89L110.893,109.471L110.893,100.89L115.118,100.89L115.118,116.333L111.233,116.333L104.403,108.156L104.403,116.351L100.408,116.344Z" style="fill:rgb(116,86,85);fill-rule:nonzero;"/>
            </g>
        </g>
        <g transform="matrix(21.3645,0,0,21.3645,-449.868,-765.599)">
            <g id="path6" transform="matrix(0.818597,0,0,0.818597,15.8776,15.9463)">
                <path d="M118.049,116.332L118.03,116.351L118.038,100.89L122.186,100.89L122.186,111.039L118.049,116.332Z" style="fill:rgb(116,86,85);"/>
            </g>
        </g>
        <g transform="matrix(21.3645,0,0,21.3645,-449.868,-765.599)">
            <g id="path7" transform="matrix(0.818597,0,0,0.818597,15.8776,15.9463)">
                <path d="M125.096,100.89L132.805,100.89C132.805,100.89 138.022,100.668 138.029,106.227C138.035,111.421 133.548,111.847 133.548,111.847L129.399,111.847L129.399,116.351L125.096,116.351L125.096,100.89ZM132.127,109.129C133.845,109.129 134.839,108.021 134.839,106.303C134.839,104.585 133.845,103.476 132.127,103.476L129.367,103.476L129.367,109.129L132.127,109.129Z" style="fill:rgb(116,86,85);"/>
            </g>
        </g>
        <g transform="matrix(21.3645,0,0,21.3645,-449.868,-765.599)">
            <g transform="matrix(0.100087,0,0,0.100087,-81.6561,-80.1107)">
                <g transform="matrix(50,0,0,50,2099.05,1976.75)">
                </g>
                <text x="1392.89px" y="1976.75px" style="font-family:'AArslanWessamA-AArslanWessamA', '(A) Arslan Wessam A';font-size:50px;">I<tspan x="1432.73px 1487.54px 1539.03px 1586.95px 1632.21px 1681.64px 1740.7px 1788.62px 1843.43px 1892.86px 1938.12px 1976.21px 2023.25px 2072.68px " y="1976.75px 1976.75px 1976.75px 1976.75px 1976.75px 1976.75px 1976.75px 1976.75px 1976.75px 1976.75px 1976.75px 1976.75px 1976.75px 1976.75px ">NVESTMENTS LTD</tspan></text>
            </g>
        </g>
    </g>
</svg>
